<?xml version="1.0" encoding="UTF-8"?><svg id="Layer_1" xmlns="http://www.w3.org/2000/svg" viewBox="0 0 1176.04 1365.87"><polygon points="294.83 360.83 370.31 375.6 433.83 356.89 394.97 338.24 294.83 360.83" style="fill:#ffe5b6;"/><polygon points="294.83 360.83 294.83 829.85 357.94 851.64 370.31 375.6 294.83 360.83" style="fill:#ffc114;"/><polygon points="331.02 390.71 343.86 392.14 343.86 851.64 328.76 856.28 331.02 390.71" style="fill:#d05d27;"/><polygon points="331.02 390.71 581.24 448.32 617.6 424.89 735.39 392.14 473.38 335.96 331.02 390.71" style="fill:#ffe5b6;"/><polygon points="353.7 395.93 581.32 444.4 563.98 1362.27 340.02 1253.68 353.7 395.93" style="fill:#ffc114;"/><polygon points="571.03 442.61 581.32 444.4 576.63 1326.24 562.47 1337.93 571.03 442.61" style="fill:#fffbf4;"/><polyline points="716.17 386.29 688.45 1249.21 576.63 1326.24 581.32 444.4" style="fill:#d05d27;"/><polygon points="617.44 433.41 611.3 927.52 695.54 957.85 703.66 446.34 617.44 433.41" style="fill:#ffc114;"/><polygon points="703.66 446.34 713.33 448.32 703.66 952.1 695.63 952.1 703.66 446.34" style="fill:#fffbf4;"/><polygon points="713.33 448.32 595.58 434.59 716.17 386.29 817.92 417.24 713.33 448.32" style="fill:#ffe5b6;"/><polygon points="713.33 448.32 817.92 417.24 803.82 926.41 703.33 969.69 713.33 448.32" style="fill:#d05d27;"/><polygon points="281.25 835.92 328.76 856.28 340.07 1243.12 564.03 1351.7 688.45 1268 688.45 978.44 803.82 926.41 824.18 406.11 643.2 360.86 448.65 313.36 281.25 349.55 281.25 835.92" style="fill:none; stroke:#000; stroke-linecap:round; stroke-linejoin:round; stroke-width:28.35px;"/><ellipse cx="524.92" cy="192.36" rx="188.41" ry="178.19" style="fill:#ffc114; stroke:#000; stroke-miterlimit:10; stroke-width:28.35px;"/><path d="M398.56,192.36c0-67.84,60.22-122.74,134.64-122.74" style="fill:none; stroke:#fff; stroke-linecap:round; stroke-miterlimit:10; stroke-width:28.35px;"/><path d="M657.48,117.24c66.51,145.06-101.55,277.7-211.3,181.18,116.79,0,211.3-81.04,211.3-181.18Z" style="fill:#d05d27;"/></svg>